<svg width="98" height="98" viewBox="0 0 98 98" fill="none" xmlns="http://www.w3.org/2000/svg">
<path d="M74.072 72.904H64.952C62.2 72.904 60.824 71.56 60.824 68.872V43.624C60.824 39.912 59.928 37.032 58.136 34.984C56.344 32.936 53.72 31.912 50.264 31.912C45.336 31.912 41.496 33.928 38.744 37.96C38.424 38.344 38.008 39.048 37.496 40.072V66.472H42.584C43.416 66.472 43.832 66.856 43.832 67.624V71.752C43.832 72.52 43.416 72.904 42.584 72.904H24.248C23.416 72.904 23 72.52 23 71.752V67.624C23 66.856 23.416 66.472 24.248 66.472H29.528V32.104H24.248C23.416 32.104 23 31.72 23 30.952V26.824C23 26.056 23.416 25.672 24.248 25.672H35.48C36.312 25.672 36.728 26.056 36.728 26.824L36.536 33.352H36.824C40.152 27.784 45.304 25 52.28 25C57.4 25 61.4 26.504 64.28 29.512C67.16 32.52 68.632 36.584 68.696 41.704V66.472H74.072C74.904 66.472 75.32 66.856 75.32 67.624V71.752C75.32 72.52 74.904 72.904 74.072 72.904Z" fill="#1F77A8"/>
<circle cx="49" cy="49" r="45.5" stroke="#1F77A8" stroke-width="7"/>
</svg>
